<?xml version="1.0" encoding="UTF-8"?>
<svg id="Layer_1" xmlns="http://www.w3.org/2000/svg" version="1.1" viewBox="0 0 34 34">
  <!-- Generator: Adobe Illustrator 29.7.1, SVG Export Plug-In . SVG Version: 2.1.1 Build 8)  -->
  <defs>
    <style>
      .st0 {
        fill: none;
        stroke: #34c759;
        stroke-linecap: round;
        stroke-linejoin: round;
        stroke-width: 3px;
      }
    </style>
  </defs>
  <path class="st0" d="M12.7,9.9h8.5M21.2,24.1v-4.2M17,24.1h0M12.7,24.1h0M12.7,19.8h0M17,19.8h0M21.2,15.6h0M17,15.6h0M12.7,15.6h0M9.9,29.8h14.2c.8,0,1.5-.3,2-.8.5-.5.8-1.3.8-2V7.1c0-.8-.3-1.5-.8-2-.5-.5-1.3-.8-2-.8h-14.2c-.8,0-1.5.3-2,.8-.5.5-.8,1.3-.8,2v19.8c0,.8.3,1.5.8,2,.5.5,1.3.8,2,.8Z"/>
</svg>