<svg width="23" height="28" viewBox="0 0 23 28" fill="none" xmlns="http://www.w3.org/2000/svg">
<path d="M22.5466 10.4027C23.5171 11.3732 22.8298 13.0326 21.4573 13.0326C20.6065 13.0326 19.9167 13.7223 19.9167 14.5731V17.0365C19.9167 17.5621 19.6508 18.052 19.21 18.3383L5.48258 27.2544C4.44987 27.9252 3.08472 27.1841 3.08472 25.9526V14.5731C3.08472 13.7223 2.39499 13.0326 1.54417 13.0326C0.171684 13.0326 -0.515658 11.3732 0.454834 10.4027L10.4031 0.454464C11.0093 -0.151752 11.9922 -0.151753 12.5984 0.454463L22.5466 10.4027ZM9.12806 9.63167C8.83706 9.92277 8.67358 10.3175 8.67358 10.7291V15.6586C8.67358 16.89 10.0388 17.6312 11.0715 16.9603L13.6212 15.3042C14.0619 15.0178 14.3279 14.528 14.3279 14.0024V10.7303C14.3279 10.3186 14.1643 9.92373 13.8732 9.63262L12.5976 8.357C11.9913 7.75071 11.0083 7.75079 10.4021 8.35719L9.12806 9.63167Z" fill="#FFCC00"/>
</svg>
