<svg width="34" height="34" viewBox="0 0 34 34" fill="none" xmlns="http://www.w3.org/2000/svg">
<path d="M12.7499 9.91667H21.2499M21.2499 24.0833V19.8333M16.9999 24.0833H17.0141M12.7499 24.0833H12.7641M12.7499 19.8333H12.7641M16.9999 19.8333H17.0141M21.2499 15.5833H21.2641M16.9999 15.5833H17.0141M12.7499 15.5833H12.7641M9.91659 29.75H24.0833C24.8347 29.75 25.5554 29.4515 26.0867 28.9201C26.6181 28.3888 26.9166 27.6681 26.9166 26.9167V7.08333C26.9166 6.33189 26.6181 5.61122 26.0867 5.07986C25.5554 4.54851 24.8347 4.25 24.0833 4.25H9.91659C9.16514 4.25 8.44447 4.54851 7.91312 5.07986C7.38176 5.61122 7.08325 6.33189 7.08325 7.08333V26.9167C7.08325 27.6681 7.38176 28.3888 7.91312 28.9201C8.44447 29.4515 9.16514 29.75 9.91659 29.75Z" stroke="#34C759" stroke-width="2" stroke-linecap="round" stroke-linejoin="round"/>
</svg>
