<svg width="38" height="46" viewBox="0 0 38 46" fill="none" xmlns="http://www.w3.org/2000/svg">
<path fill-rule="evenodd" clip-rule="evenodd" d="M36.8101 17.5034C38.373 19.0664 37.2661 21.7388 35.0557 21.7388C33.6855 21.7388 32.5747 22.8495 32.5747 24.2198V28.1881C32.5747 29.0346 32.1464 29.8236 31.4365 30.2847L9.32904 44.6436C7.66587 45.7239 5.4673 44.5302 5.4673 42.547V24.2198C5.4673 22.8495 4.35652 21.7388 2.98629 21.7388C0.775946 21.7388 -0.331 19.0664 1.23195 17.5034L17.2532 1.48211C18.2296 0.5058 19.8125 0.5058 20.7888 1.48211L36.8101 17.5034ZM15.1995 16.2643C14.7307 16.7332 14.4673 17.3691 14.4673 18.0321V25.969C14.4673 27.9522 16.6658 29.1458 18.329 28.0656L22.4364 25.398C23.1463 24.9369 23.5747 24.1479 23.5747 23.3014V18.0321C23.5747 17.3691 23.3113 16.7332 22.8425 16.2643L20.7888 14.2106C19.8125 13.2343 18.2296 13.2343 17.2532 14.2106L15.1995 16.2643Z" fill="#3E3E3E"/>
</svg>
